<svg viewBox="0 0 72 72" xmlns="http://www.w3.org/2000/svg"><path d="m15.35 59.08h-1.779c-.6839 0-1.238-.578-1.238-1.291v-34.83c0-.713.5544-1.291 1.238-1.291h1.779c.6839 0 1.238.578 1.238 1.291v34.83c0 .713-.5545 1.291-1.238 1.291z" fill="#fff"/><path d="m58.46 59.08h-1.779c-.6839 0-1.238-.7131-1.238-1.593v-32.97c0-.8796.5544-1.593 1.238-1.593h1.779c.6839 0 1.238.7131 1.238 1.593v32.97c0 .8796-.5545 1.593-1.238 1.593z" fill="#fff"/><path d="m7.45 43.47h7.743l-7.743 7.743z" fill="#fcea2b"/><path d="m15.19 43.47h12.34l-7.743 7.743-12.34-.05808z" fill="#3f3f3f"/><path d="m27.48 43.47h12.34l-7.743 7.743h-12.29z" fill="#fcea2b"/><path d="m39.82 43.47h12.34l-7.743 7.743h-12.34z" fill="#3f3f3f"/><path d="m52.16 43.47 11.89-.1839-7.612 7.612h-11.7z" fill="#fcea2b"/><path d="m64.05 43.29v7.612h-7.612z" fill="#3f3f3f"/><path d="m7.95 28.33 7.646-.03371-7.646 7.646z" fill="#fcea2b"/><path d="m15.6 28.3h11.94l-7.695 7.646h-11.89z" fill="#3f3f3f"/><path d="m27.48 28.3h12.34l-7.743 7.743h-12.29z" fill="#fcea2b"/><path d="m39.82 28.3h12.34l-7.743 7.743h-12.34z" fill="#3f3f3f"/><path d="m52.16 28.3h12.34l-8.062 7.646-12.02.09764z" fill="#fcea2b"/><path d="m64.05 28.33v7.612h-7.612z" fill="#3f3f3f"/><g stroke-linecap="round" stroke-linejoin="round" stroke-miterlimit="10" stroke-width="2"><g fill="none" stroke="#000"><path d="m12.74 42.72v-6.348"/><path d="m16.92 50.9v6.509c0 .6723-.5448 1.217-1.217 1.217h-1.748c-.672 0-1.217-.5451-1.217-1.217v-6.071"/><path d="m16.92 36.37v6.348"/><path d="m12.74 28.24v-5.907m4.181 0v5.812"/><path d="m55.1 43.29v-6.921"/><path d="m59.28 51.34v6.071c0 .6723-.5448 1.217-1.217 1.217h-1.748c-.672 0-1.217-.5451-1.217-1.217v-6.071"/><path d="m59.28 36.37v5.969"/><path d="m55.1 28.03v-5.891m4.181 0v5.796"/><path d="m7.95 28.33h56.1v7.612h-56.1z"/><path d="m7.95 43.29h56.1v7.612h-56.1z"/><ellipse cx="14.83" cy="17.97" rx="4.594" ry="4.596"/><ellipse cx="57.19" cy="17.97" rx="4.594" ry="4.596"/></g><g fill="#f4aa41" fill-rule="evenodd" stroke="#e27022"><ellipse cx="14.835" cy="17.966" rx="4.594" ry="4.596"/><ellipse cx="57.185" cy="17.966" rx="4.594" ry="4.596"/></g></g></svg>